<?xml version="1.0" encoding="UTF-8" standalone="no"?>
<svg
   xmlns:dc="http://purl.org/dc/elements/1.1/"
   xmlns:cc="http://creativecommons.org/ns#"
   xmlns:rdf="http://www.w3.org/1999/02/22-rdf-syntax-ns#"
   xmlns:svg="http://www.w3.org/2000/svg"
   xmlns="http://www.w3.org/2000/svg"
   xmlns:sodipodi="http://sodipodi.sourceforge.net/DTD/sodipodi-0.dtd"
   xmlns:inkscape="http://www.inkscape.org/namespaces/inkscape"
   height="16px"
   version="1.1"
   viewBox="0 0 16 16"
   width="16px"
   id="svg2"
   inkscape:version="0.48.4 r9939"
   sodipodi:docname="1380990704_519577-073_RSS.svg">
  <metadata
     id="metadata13">
    <rdf:RDF>
      <cc:Work
         rdf:about="">
        <dc:format>image/svg+xml</dc:format>
        <dc:type
           rdf:resource="http://purl.org/dc/dcmitype/StillImage" />
        <dc:title></dc:title>
      </cc:Work>
    </rdf:RDF>
  </metadata>
  <sodipodi:namedview
     pagecolor="#ffffff"
     bordercolor="#666666"
     borderopacity="1"
     objecttolerance="10"
     gridtolerance="10"
     guidetolerance="10"
     inkscape:pageopacity="0"
     inkscape:pageshadow="2"
     inkscape:window-width="1855"
     inkscape:window-height="1056"
     id="namedview11"
     showgrid="false"
     inkscape:zoom="20.85965"
     inkscape:cx="16.165671"
     inkscape:cy="1.0713185"
     inkscape:window-x="65"
     inkscape:window-y="24"
     inkscape:window-maximized="1"
     inkscape:current-layer="svg2" />
  <defs
     id="defs6" />
  <g
     fill="none"
     fill-rule="evenodd"
     id="Icons with numbers"
     stroke="none"
     stroke-width="1"
     style="fill:#ffffff"
     inkscape:export-filename="/home/ferthedems/UnivUnixMockupHTML5/img/rss.png"
     inkscape:export-xdpi="95.625"
     inkscape:export-ydpi="95.625">
    <g
       fill="#000000"
       id="Group"
       transform="translate(0.000000, -192.000000)"
       style="fill:#ffffff">
      <path
         d="M7,208 C7,204.134007 3.86599344,201 0,201 L0,198 C5.52284777,198 10,202.477152 10,208 Z M2,208 C0.895430446,208 0,207.10457 0,206 C0,204.89543 0.895430446,204 2,204 C3.10456955,204 4,204.89543 4,206 C4,207.10457 3.10456955,208 2,208 Z M13,208 C13,200.820298 7.1797021,195 0,195 L0,192 C8.83655643,192 16,199.163444 16,208 Z M13,208"
         id="Oval 213"
         style="fill:#ffffff" />
    </g>
  </g>
</svg>
