<?xml version="1.0" encoding="UTF-8" standalone="no"?>
<!-- Created with Inkscape (http://www.inkscape.org/) -->

<svg
   xmlns:dc="http://purl.org/dc/elements/1.1/"
   xmlns:cc="http://creativecommons.org/ns#"
   xmlns:rdf="http://www.w3.org/1999/02/22-rdf-syntax-ns#"
   xmlns:svg="http://www.w3.org/2000/svg"
   xmlns="http://www.w3.org/2000/svg"
   xmlns:sodipodi="http://sodipodi.sourceforge.net/DTD/sodipodi-0.dtd"
   xmlns:inkscape="http://www.inkscape.org/namespaces/inkscape"
   width="166.26918"
   height="164.28795"
   id="svg2"
   version="1.1"
   inkscape:version="0.48.4 r9939"
   sodipodi:docname="Nuevo documento 1">
  <defs
     id="defs4">
    <clipPath
       clipPathUnits="userSpaceOnUse"
       id="clipPath3060">
      <path
         style="fill:none;stroke:#000000;stroke-width:1px;stroke-linecap:butt;stroke-linejoin:miter;stroke-opacity:1"
         d="m 156.42857,159.86218 0,168.92857 187.85714,0 -2.14285,-178.92857 z"
         id="path3062"
         inkscape:connector-curvature="0" />
    </clipPath>
    <clipPath
       clipPathUnits="userSpaceOnUse"
       id="clipPath3064">
      <path
         style="fill:none;stroke:#000000;stroke-width:1px;stroke-linecap:butt;stroke-linejoin:miter;stroke-opacity:1"
         d="m 156.42857,159.86218 0,168.92857 187.85714,0 -2.14285,-178.92857 z"
         id="path3066"
         inkscape:connector-curvature="0" />
    </clipPath>
  </defs>
  <sodipodi:namedview
     id="base"
     pagecolor="#ffffff"
     bordercolor="#666666"
     borderopacity="1.0"
     inkscape:pageopacity="0.0"
     inkscape:pageshadow="2"
     inkscape:zoom="1.979899"
     inkscape:cx="345.67478"
     inkscape:cy="15.729573"
     inkscape:document-units="px"
     inkscape:current-layer="layer1"
     showgrid="false"
     showguides="true"
     inkscape:guide-bbox="true"
     fit-margin-top="0"
     fit-margin-left="0"
     fit-margin-right="0"
     fit-margin-bottom="0"
     inkscape:window-width="1855"
     inkscape:window-height="1056"
     inkscape:window-x="65"
     inkscape:window-y="24"
     inkscape:window-maximized="1" />
  <metadata
     id="metadata7">
    <rdf:RDF>
      <cc:Work
         rdf:about="">
        <dc:format>image/svg+xml</dc:format>
        <dc:type
           rdf:resource="http://purl.org/dc/dcmitype/StillImage" />
        <dc:title></dc:title>
      </cc:Work>
    </rdf:RDF>
  </metadata>
  <g
     inkscape:label="Capa 1"
     inkscape:groupmode="layer"
     id="layer1"
     transform="translate(136.56325,-106.41903)">
    <path
       sodipodi:type="arc"
       style="fill:#ffffff;fill-opacity:1"
       id="path2985"
       sodipodi:cx="157.14285"
       sodipodi:cy="326.64789"
       sodipodi:rx="60"
       sodipodi:ry="60"
       d="m 217.14285,326.64789 c 0,33.13708 -26.86291,60 -60,60 -33.13708,0 -59.999997,-26.86292 -59.999997,-60 0,-33.13709 26.862917,-60 59.999997,-60 33.13709,0 60,26.86291 60,60 z"
       transform="matrix(0.5117596,0,0,0.5117596,-186.27704,71.644029)" />
    <path
       style="fill:#ffffff;fill-opacity:1"
       d="m 157.14664,219.49107 c -60.357237,0 -109.298427,48.94119 -109.298427,109.29843 0,60.35724 48.94119,109.27746 109.298427,109.27746 60.35724,0 109.27746,-48.92022 109.27746,-109.27746 0,-60.35724 -48.92022,-109.29843 -109.27746,-109.29843 z m 0,22.061 c 48.1799,0 87.23743,39.05753 87.23743,87.23743 0,48.1799 -39.05753,87.23743 -87.23743,87.23743 -48.1799,0 -87.237423,-39.05753 -87.237423,-87.23743 0,-48.1799 39.057523,-87.23743 87.237423,-87.23743 z"
       id="path2987"
       inkscape:connector-curvature="0"
       clip-path="url(#clipPath3064)"
       transform="translate(-292.43916,-58.083771)" />
    <path
       style="fill:#ffffff;fill-opacity:1"
       d="m 157.87291,164.5028 c -90.732485,0 -164.3037063,73.57122 -164.3037063,164.30371 0,90.73248 73.5712213,164.27218 164.3037063,164.27218 90.73248,0 164.27218,-73.5397 164.27218,-164.27218 0,-90.73249 -73.5397,-164.30371 -164.27218,-164.30371 z m 0,33.16337 c 72.4268,0 131.14033,58.71353 131.14033,131.14034 0,72.4268 -58.71353,131.14034 -131.14033,131.14034 -72.426825,0 -131.140338,-58.71354 -131.140338,-131.14034 0,-72.42681 58.713513,-131.14034 131.140338,-131.14034 z"
       id="path2987-6"
       inkscape:connector-curvature="0"
       clip-path="url(#clipPath3060)"
       transform="translate(-292.43916,-58.083771)" />
  </g>
</svg>
