<?xml version="1.0" encoding="UTF-8" standalone="no"?>
<!-- Created with Inkscape (http://www.inkscape.org/) -->

<svg
   xmlns:dc="http://purl.org/dc/elements/1.1/"
   xmlns:cc="http://creativecommons.org/ns#"
   xmlns:rdf="http://www.w3.org/1999/02/22-rdf-syntax-ns#"
   xmlns:svg="http://www.w3.org/2000/svg"
   xmlns="http://www.w3.org/2000/svg"
   xmlns:sodipodi="http://sodipodi.sourceforge.net/DTD/sodipodi-0.dtd"
   xmlns:inkscape="http://www.inkscape.org/namespaces/inkscape"
   width="226.42859"
   height="256.71429"
   id="svg2"
   version="1.1"
   inkscape:version="0.48.3.1 r9886"
   sodipodi:docname="share.svg"
   inkscape:export-filename="/home/ferthedems/UnivUnixMockupHTML5/img/share.png"
   inkscape:export-xdpi="5.9599328"
   inkscape:export-ydpi="5.9599328">
  <defs
     id="defs4" />
  <sodipodi:namedview
     id="base"
     pagecolor="#ffffff"
     bordercolor="#666666"
     borderopacity="1.0"
     inkscape:pageopacity="0.0"
     inkscape:pageshadow="2"
     inkscape:zoom="1.4"
     inkscape:cx="293.30443"
     inkscape:cy="173.21268"
     inkscape:document-units="px"
     inkscape:current-layer="layer1"
     showgrid="false"
     fit-margin-top="0"
     fit-margin-left="0"
     fit-margin-right="0"
     fit-margin-bottom="0"
     inkscape:window-width="1366"
     inkscape:window-height="721"
     inkscape:window-x="0"
     inkscape:window-y="22"
     inkscape:window-maximized="1" />
  <metadata
     id="metadata7">
    <rdf:RDF>
      <cc:Work
         rdf:about="">
        <dc:format>image/svg+xml</dc:format>
        <dc:type
           rdf:resource="http://purl.org/dc/dcmitype/StillImage" />
        <dc:title></dc:title>
      </cc:Work>
    </rdf:RDF>
  </metadata>
  <g
     inkscape:label="Capa 1"
     inkscape:groupmode="layer"
     id="layer1"
     transform="translate(-38.285707,-15.647895)">
    <path
       id="rect3023-8"
       style="fill:#ffffff"
       d="m 100.62097,140.35814 156.02122,88.32187 -15.8346,27.97193 L 84.786377,168.33007 z M 75.866677,138.35278 223.84257,37.127753 241.99048,63.657286 94.014584,164.88231 z m 42.419033,11.72368 c 0,22.09139 -17.90861,40 -40.000004,40 -22.091386,0 -39.999992,-17.90861 -39.999999,-40 4e-6,-22.09139 17.908616,-40 40.000004,-40 22.091389,0 39.999999,17.90861 39.999999,40 z m 145.71428,82.28572 c 10e-6,22.09139 -17.90861,40 -40,40 -22.09138,0 -39.99999,-17.90861 -40,-40 1e-5,-22.09139 17.90862,-40 40.00001,-40 22.09139,0 40,17.90861 39.99999,40 z m 0.7143,-176.714284 c 0,22.09139 -17.90861,40 -40,40 -22.09139,0 -40,-17.90861 -40,-40 0,-22.091393 17.90861,-39.999995 40,-40.000001 22.09139,2e-6 40,17.908606 40,40.000001 z"
       inkscape:connector-curvature="0" />
  </g>
</svg>
